# xmcd CD database file
#
# Track frame offsets:
#	150
#	14230
#	27447
#	36685
#	56572
#	69137
#	79545
#	90495
#	103105
#	113515
#	124125
#	140405
#
# Disc length: 2071 seconds
#
# Revision: 3
# Processed by: cddbd v1.5.2PL0 Copyright (c) Steve Scherf et al.
# Submitted via: CDex 1.70beta2
#
DISCID=9f08150c
DTITLE=Various Artist - Roy Rogers Tribute
DYEAR=1991
DGENRE=Country
TTITLE0=Roy Rogers and the Kentucky Headhunters/That's How the West Was Swung
TTITLE1=Roy Rogers and Randy Travis/Here's Hopin'
TTITLE2=Roy Rogers and Clint Black/Hold On Partner
TTITLE3=Roy Rogers, KT Oslin and Restless Heart/Tumbling Tumbleweeds
TTITLE4=Roy Rogers and EmmyLou Harris/Little Joe the Wrangler
TTITLE5=Roy Rogers and Ricky Van Shelton/When Pay Day Rolls Around
TTITLE6=Roy Rogers and Kathey Mattea/Final Frontier
TTITLE7=Roy Rogers, Lorrie Morgan and The Oak Ridge Boys/Don't Fence Me In
TTITLE8=Roy Rogers and Willie Nelson/Rodeo Road
TTITLE9=Roy Rogers/Alive and Kickin'
TTITLE10=Dusty Rogers/King of the Cowboys
TTITLE11=Roy Rogers, Dale Evans, Dusty Rogers and Freinds/Happy Trails
EXTD=YEAR: 1991
EXTT0=Roy and The Kentucky Headhunters
EXTT1=Roy and Randy Travis
EXTT2=Roy and Clint Black
EXTT3=Roy and K.T. Oslin and Restless Heart
EXTT4=Roy and Emmylou Harris
EXTT5=Roy and Ricky Van Shelton
EXTT6=Roy and Kathy Mattea
EXTT7=Roy and Lorrie Morgan and The Oak Ridge Boys
EXTT8=Roy and Willie Nelson
EXTT9=Roy Rogers
EXTT10=Dusty Rogers
EXTT11=Roy, Dale Evans, Dusty Rogers and Friends
PLAYORDER=
